<?xml version="1.0" encoding="UTF-8" standalone="no"?>
<!-- Created with Inkscape (http://www.inkscape.org/) -->

<svg
   version="1.1"
   id="svg1"
   width="32"
   height="32"
   viewBox="0 0 32 32"
   sodipodi:docname="pause.svg"
   inkscape:export-filename="pause.png"
   inkscape:export-xdpi="96"
   inkscape:export-ydpi="96"
   xmlns:inkscape="http://www.inkscape.org/namespaces/inkscape"
   xmlns:sodipodi="http://sodipodi.sourceforge.net/DTD/sodipodi-0.dtd"
   xmlns="http://www.w3.org/2000/svg"
   xmlns:svg="http://www.w3.org/2000/svg">
  <sodipodi:namedview
     id="namedview1"
     pagecolor="#ffffff"
     bordercolor="#000000"
     borderopacity="0.25"
     inkscape:showpageshadow="2"
     inkscape:pageopacity="0.0"
     inkscape:pagecheckerboard="0"
     inkscape:deskcolor="#d1d1d1"
     inkscape:export-bgcolor="#00000000" />
  <defs
     id="defs1" />
  <g
     id="g1">
    <path
       style="fill:#0284c7;fill-opacity:1"
       id="rect1"
       width="10"
       height="24"
       x="16"
       y="2"
       d="m 20,2 h 2 a 4,4 45 0 1 4,4 v 16 a 4,4 135 0 1 -4,4 H 20 A 4,4 45 0 1 16,22 V 6 a 4,4 135 0 1 4,-4 z"
       transform="translate(2,2)" />
    <path
       style="fill:#0284c7;fill-opacity:1"
       id="rect1-5"
       width="10"
       height="24"
       x="16"
       y="2"
       d="m 20,2 h 2 a 4,4 45 0 1 4,4 v 16 a 4,4 135 0 1 -4,4 H 20 A 4,4 45 0 1 16,22 V 6 a 4,4 135 0 1 4,-4 z"
       transform="translate(-12,2)" />
  </g>
</svg>
