<?xml version="1.0" encoding="UTF-8" standalone="no"?>
<!-- Created with Inkscape (http://www.inkscape.org/) -->

<svg
   width="31.999998"
   height="31.999998"
   viewBox="0 0 8.4666661 8.4666661"
   version="1.1"
   id="svg1"
   inkscape:export-filename="step.png"
   inkscape:export-xdpi="96"
   inkscape:export-ydpi="96"
   inkscape:version="1.3.2 (091e20ef0f, 2023-11-25)"
   sodipodi:docname="step.svg"
   xmlns:inkscape="http://www.inkscape.org/namespaces/inkscape"
   xmlns:sodipodi="http://sodipodi.sourceforge.net/DTD/sodipodi-0.dtd"
   xmlns="http://www.w3.org/2000/svg"
   xmlns:svg="http://www.w3.org/2000/svg">
  <sodipodi:namedview
     id="namedview1"
     pagecolor="#ffffff"
     bordercolor="#000000"
     borderopacity="0.25"
     inkscape:showpageshadow="2"
     inkscape:pageopacity="0.0"
     inkscape:pagecheckerboard="0"
     inkscape:deskcolor="#d1d1d1"
     inkscape:document-units="px"
     inkscape:zoom="11.313709"
     inkscape:cx="-1.0606602"
     inkscape:cy="9.8553007"
     inkscape:window-width="940"
     inkscape:window-height="971"
     inkscape:window-x="45"
     inkscape:window-y="45"
     inkscape:window-maximized="0"
     inkscape:current-layer="layer1"
     inkscape:export-bgcolor="#00000000"
     showguides="true" />
  <defs
     id="defs1" />
  <g
     inkscape:label="Layer 1"
     inkscape:groupmode="layer"
     id="layer1">
    <path
       id="path1-2"
       style="fill:#0284c7;fill-opacity:1;stroke-width:0.264583"
       inkscape:transform-center-x="-1.4645919"
       inkscape:transform-center-y="0.0095745051"
       d="M -0.87728414,-2.5712575 A 0.45212038,0.45212038 0 0 0 -1.2673062,-2.1234618 V 2.1721408 A 0.4521219,0.4521219 0 0 0 -0.51642891,2.511486 L 1.5595061,0.68488191 a 0.87983774,0.87983774 0 0 0 0,-1.32108475 L -0.51642891,-2.4628069 a 0.45212038,0.45212038 0 0 0 -0.36085523,-0.1084506 z m 0.89942487,1.73083534 H 0.38231766 V 1.0627095 H -0.02330532 V 0.05516922 c 0,-0.12236278 0.0017181,-0.23431168 0.0057655,-0.33584677 -0.02496076,0.0390519 -0.05582367,0.0799209 -0.092927,0.12244414 L -0.2783459,0.02018518 -0.48590548,-0.30822748 Z"
       transform="matrix(1.5237059,0,0,1.1817145,3.7830853,4.1019932)" />
  </g>
</svg>
